# xmcd
#
# Track frame offsets:
#	150
#	13390
#	25777
#	43817
#	57635
#	73025
#	90947
#	112515
#	140717
#	163015
#	180590
#	200340
#	234457
#	258760
#	282815
#	298417
#
# Disc length: 4268 seconds
#
# Revision: 2
# Processed by: cddbd v1.5.1PL2 Copyright (c) Steve Scherf et al.
# Submitted via: EasyCDDAExtractor 9.0.0.1
#
DISCID=e510aa10
DTITLE=Various Artist - BLUES ROCK
DYEAR=1998
DGENRE=Blues
TTITLE0=Muddy Waters - Manish Boy - 1955
TTITLE1=Albert King - Born Under A Bad Sign - 1967
TTITLE2=Bo Diddley and Billy Boy Arnold - A Man Amongst Men - 1996
TTITLE3=Chuck Berry - Wee Wee Hours - 1951
TTITLE4=Roy Buchanan and Delbert Mcclinton - You Can't Judge A Book - 1986
TTITLE5=Zakk Wilde - Baby Please Don't Go - 1992
TTITLE6=Steve Lukather and Richie Kozen - You Don't Love Me - 1992
TTITLE7=Richie Sambora - Stranger In This Town - 1991
TTITLE8=Allman Brothers - Is Not My Cross To Bear - 1969
TTITLE9=Gary Moore - Only Fool In Town - 1992
TTITLE10=K Russel and R Derringer and Pat Travers - Albert's Jam - 1993
TTITLE11=R Derringer and S Hunter and Pat Travers - Blues For Stevie - 1993
TTITLE12=Great White - South Bay City - 1991
TTITLE13=Poison - Poor Boy Blues - 1990
TTITLE14=Georgia Satellites - Keep Your Hands To Youself - 1993
TTITLE15=George Thorogood - Bad To The Bone - 1992
EXTD=
EXTT0=
EXTT1=
EXTT2=
EXTT3=
EXTT4=
EXTT5=
EXTT6=
EXTT7=
EXTT8=
EXTT9=
EXTT10=
EXTT11=
EXTT12=
EXTT13=
EXTT14=
EXTT15=
PLAYORDER=
